<?xml version="1.0" encoding="UTF-8" standalone="no"?><!-- Generator: Gravit.io --><svg xmlns="http://www.w3.org/2000/svg" xmlns:xlink="http://www.w3.org/1999/xlink" style="isolation:isolate" viewBox="-387.44 -220.36 1067.596 565.36" width="1067.596pt" height="565.36pt"><defs><clipPath id="_clipPath_TZaqaG4bXCzlGQ4Sm5Qvb54MPsq8b4xF"><rect x="-387.44" y="-220.36" width="1067.596" height="565.36"/></clipPath></defs><g clip-path="url(#_clipPath_TZaqaG4bXCzlGQ4Sm5Qvb54MPsq8b4xF)"><g opacity="0"><rect x="-387.44" y="-220.36" width="1067.596" height="565.36" transform="matrix(1,0,0,1,0,0)" fill="rgb(0,151,0)"/></g><mask id="_mask_DlcWVeyRXeTgrCKEh2IxMD3dauXN5ECV"><path d=" M -248.522 226.061 C -257.192 225.822 -264.043 218.84 -263.812 210.48 C -263.581 202.119 -256.355 195.526 -247.686 195.765 C -239.016 196.004 -232.165 202.986 -232.396 211.347 C -232.627 219.707 -239.853 226.301 -248.522 226.061 Z " fill="white" stroke="none"/></mask><path d=" M -248.522 226.061 C -257.192 225.822 -264.043 218.84 -263.812 210.48 C -263.581 202.119 -256.355 195.526 -247.686 195.765 C -239.016 196.004 -232.165 202.986 -232.396 211.347 C -232.627 219.707 -239.853 226.301 -248.522 226.061 Z " fill="rgb(242,7,242)"/><path d=" M -248.522 226.061 C -257.192 225.822 -264.043 218.84 -263.812 210.48 C -263.581 202.119 -256.355 195.526 -247.686 195.765 C -239.016 196.004 -232.165 202.986 -232.396 211.347 C -232.627 219.707 -239.853 226.301 -248.522 226.061 Z " fill="rgb(242,7,242)" mask="url(#_mask_DlcWVeyRXeTgrCKEh2IxMD3dauXN5ECV)" vector-effect="non-scaling-stroke" stroke-width="6" stroke="rgb(64,0,34)" stroke-linejoin="miter" stroke-linecap="square" stroke-miterlimit="3"/><mask id="_mask_YVQe8dUvFxvALbLOJiMWupCiEHnNh03K"><path d=" M 314.82 226.061 C 306.151 225.822 299.3 218.84 299.531 210.48 C 299.761 202.119 306.987 195.526 315.657 195.765 C 324.326 196.004 331.177 202.986 330.946 211.347 C 330.716 219.707 323.49 226.301 314.82 226.061 Z " fill="white" stroke="none"/></mask><path d=" M 314.82 226.061 C 306.151 225.822 299.3 218.84 299.531 210.48 C 299.761 202.119 306.987 195.526 315.657 195.765 C 324.326 196.004 331.177 202.986 330.946 211.347 C 330.716 219.707 323.49 226.301 314.82 226.061 Z " fill="rgb(242,7,242)"/><path d=" M 314.82 226.061 C 306.151 225.822 299.3 218.84 299.531 210.48 C 299.761 202.119 306.987 195.526 315.657 195.765 C 324.326 196.004 331.177 202.986 330.946 211.347 C 330.716 219.707 323.49 226.301 314.82 226.061 Z " fill="rgb(242,7,242)" mask="url(#_mask_YVQe8dUvFxvALbLOJiMWupCiEHnNh03K)" vector-effect="non-scaling-stroke" stroke-width="6" stroke="rgb(64,0,34)" stroke-linejoin="miter" stroke-linecap="square" stroke-miterlimit="3"/><mask id="_mask_uMDDwCvJfrcyiNH260fARKWFtMYnJ9wV"><path d=" M -264.236 99.603 C -272.905 99.364 -279.756 92.382 -279.525 84.022 C -279.295 75.661 -272.069 69.068 -263.399 69.307 C -254.73 69.546 -247.879 76.528 -248.11 84.889 C -248.34 93.249 -255.566 99.843 -264.236 99.603 Z " fill="white" stroke="none"/></mask><path d=" M -264.236 99.603 C -272.905 99.364 -279.756 92.382 -279.525 84.022 C -279.295 75.661 -272.069 69.068 -263.399 69.307 C -254.73 69.546 -247.879 76.528 -248.11 84.889 C -248.34 93.249 -255.566 99.843 -264.236 99.603 Z " fill="rgb(242,7,242)"/><path d=" M -264.236 99.603 C -272.905 99.364 -279.756 92.382 -279.525 84.022 C -279.295 75.661 -272.069 69.068 -263.399 69.307 C -254.73 69.546 -247.879 76.528 -248.11 84.889 C -248.34 93.249 -255.566 99.843 -264.236 99.603 Z " fill="rgb(242,7,242)" mask="url(#_mask_uMDDwCvJfrcyiNH260fARKWFtMYnJ9wV)" vector-effect="non-scaling-stroke" stroke-width="6" stroke="rgb(64,0,34)" stroke-linejoin="miter" stroke-linecap="square" stroke-miterlimit="3"/><mask id="_mask_2nlqLG01ptDalgwlQfK9JuNJvdjvI89Y"><path d=" M 299.107 99.603 C 290.437 99.364 283.586 92.382 283.817 84.022 C 284.048 75.661 291.274 69.068 299.943 69.307 C 308.613 69.546 315.464 76.528 315.233 84.889 C 315.002 93.249 307.776 99.843 299.107 99.603 Z " fill="white" stroke="none"/></mask><path d=" M 299.107 99.603 C 290.437 99.364 283.586 92.382 283.817 84.022 C 284.048 75.661 291.274 69.068 299.943 69.307 C 308.613 69.546 315.464 76.528 315.233 84.889 C 315.002 93.249 307.776 99.843 299.107 99.603 Z " fill="rgb(242,7,242)"/><path d=" M 299.107 99.603 C 290.437 99.364 283.586 92.382 283.817 84.022 C 284.048 75.661 291.274 69.068 299.943 69.307 C 308.613 69.546 315.464 76.528 315.233 84.889 C 315.002 93.249 307.776 99.843 299.107 99.603 Z " fill="rgb(242,7,242)" mask="url(#_mask_2nlqLG01ptDalgwlQfK9JuNJvdjvI89Y)" vector-effect="non-scaling-stroke" stroke-width="6" stroke="rgb(64,0,34)" stroke-linejoin="miter" stroke-linecap="square" stroke-miterlimit="3"/><mask id="_mask_BnltXlsIUtMMqy85wzQf09MkwzMZDMzF"><rect x="-297.517" y="264.741" width="47.188" height="47.188" fill="white" stroke="none"/></mask><rect x="-297.517" y="264.741" width="47.188" height="47.188" transform="matrix(0.997,-0.074,0.074,0.997,-22.015,-19.42)" fill="rgb(255,153,0)"/><rect x="-297.517" y="264.741" width="47.188" height="47.188" transform="matrix(0.997,-0.074,0.074,0.997,-22.015,-19.42)" fill="rgb(255,153,0)" mask="url(#_mask_BnltXlsIUtMMqy85wzQf09MkwzMZDMzF)" vector-effect="non-scaling-stroke" stroke-width="8" stroke="rgb(81,48,0)" stroke-linejoin="miter" stroke-linecap="square" stroke-miterlimit="2"/><mask id="_mask_0C5uGag1UmxsNClf4sqLML0bvNY3RliB"><rect x="427.638" y="187.319" width="47.188" height="47.188" fill="white" stroke="none"/></mask><rect x="427.638" y="187.319" width="47.188" height="47.188" transform="matrix(0.725,-0.689,0.689,0.725,-21.109,368.992)" fill="rgb(255,153,0)"/><rect x="427.638" y="187.319" width="47.188" height="47.188" transform="matrix(0.725,-0.689,0.689,0.725,-21.109,368.992)" fill="rgb(255,153,0)" mask="url(#_mask_0C5uGag1UmxsNClf4sqLML0bvNY3RliB)" vector-effect="non-scaling-stroke" stroke-width="8" stroke="rgb(81,48,0)" stroke-linejoin="miter" stroke-linecap="square" stroke-miterlimit="2"/><mask id="_mask_yV7gCPRxUxEIqBbkZ8LsPoMPuxnOxfUE"><rect x="399.169" y="-43.894" width="47.188" height="47.188" fill="white" stroke="none"/></mask><rect x="399.169" y="-43.894" width="47.188" height="47.188" transform="matrix(0.996,-0.086,0.086,0.996,3.288,36.101)" fill="rgb(255,153,0)"/><rect x="399.169" y="-43.894" width="47.188" height="47.188" transform="matrix(0.996,-0.086,0.086,0.996,3.288,36.101)" fill="rgb(255,153,0)" mask="url(#_mask_yV7gCPRxUxEIqBbkZ8LsPoMPuxnOxfUE)" vector-effect="non-scaling-stroke" stroke-width="8" stroke="rgb(81,48,0)" stroke-linejoin="miter" stroke-linecap="square" stroke-miterlimit="2"/><mask id="_mask_xJCFEH4iFvZveGcaBQlQ2Q6l8gR3uBBk"><rect x="376.406" y="85.583" width="47.188" height="47.188" fill="white" stroke="none"/></mask><rect x="376.406" y="85.583" width="47.188" height="47.188" transform="matrix(0.993,0.114,-0.114,0.993,15.129,-45.077)" fill="rgb(255,153,0)"/><rect x="376.406" y="85.583" width="47.188" height="47.188" transform="matrix(0.993,0.114,-0.114,0.993,15.129,-45.077)" fill="rgb(255,153,0)" mask="url(#_mask_xJCFEH4iFvZveGcaBQlQ2Q6l8gR3uBBk)" vector-effect="non-scaling-stroke" stroke-width="8" stroke="rgb(81,48,0)" stroke-linejoin="miter" stroke-linecap="square" stroke-miterlimit="2"/><mask id="_mask_VKSlXEG4lHyXziVUPgU69PktqCg3Wzxb"><rect x="-321.332" y="120.576" width="47.188" height="47.188" fill="white" stroke="none"/></mask><rect x="-321.332" y="120.576" width="47.188" height="47.188" transform="matrix(0.997,-0.074,0.074,0.997,-11.446,-21.57)" fill="rgb(255,153,0)"/><rect x="-321.332" y="120.576" width="47.188" height="47.188" transform="matrix(0.997,-0.074,0.074,0.997,-11.446,-21.57)" fill="rgb(255,153,0)" mask="url(#_mask_VKSlXEG4lHyXziVUPgU69PktqCg3Wzxb)" vector-effect="non-scaling-stroke" stroke-width="8" stroke="rgb(81,48,0)" stroke-linejoin="miter" stroke-linecap="square" stroke-miterlimit="2"/><mask id="_mask_YE9fgMLRPoVBilpB6mWKU9eCjXfsboSP"><rect x="-268.493" y="24.003" width="47.188" height="47.188" fill="white" stroke="none"/></mask><rect x="-268.493" y="24.003" width="47.188" height="47.188" transform="matrix(0.186,0.983,-0.983,0.186,-152.608,279.381)" fill="rgb(255,153,0)"/><rect x="-268.493" y="24.003" width="47.188" height="47.188" transform="matrix(0.186,0.983,-0.983,0.186,-152.608,279.381)" fill="rgb(255,153,0)" mask="url(#_mask_YE9fgMLRPoVBilpB6mWKU9eCjXfsboSP)" vector-effect="non-scaling-stroke" stroke-width="8" stroke="rgb(81,48,0)" stroke-linejoin="miter" stroke-linecap="square" stroke-miterlimit="2"/><mask id="_mask_44MRFTXVrdiIfAd5bodjBvpySiSsdbpw"><rect x="-133.691" y="0.758" width="47.188" height="47.188" fill="white" stroke="none"/></mask><rect x="-133.691" y="0.758" width="47.188" height="47.188" transform="matrix(0.186,0.983,-0.983,0.186,-65.704,128.004)" fill="rgb(255,153,0)"/><rect x="-133.691" y="0.758" width="47.188" height="47.188" transform="matrix(0.186,0.983,-0.983,0.186,-65.704,128.004)" fill="rgb(255,153,0)" mask="url(#_mask_44MRFTXVrdiIfAd5bodjBvpySiSsdbpw)" vector-effect="non-scaling-stroke" stroke-width="8" stroke="rgb(81,48,0)" stroke-linejoin="miter" stroke-linecap="square" stroke-miterlimit="2"/><mask id="_mask_MqkFlK8Do9Ep7f1dum7LPBCiybxq2e4c"><rect x="-4.068" y="-23.492" width="47.188" height="47.188" fill="white" stroke="none"/></mask><rect x="-4.068" y="-23.492" width="47.188" height="47.188" transform="matrix(0.764,-0.646,0.646,0.764,4.552,12.633)" fill="rgb(255,153,0)"/><rect x="-4.068" y="-23.492" width="47.188" height="47.188" transform="matrix(0.764,-0.646,0.646,0.764,4.552,12.633)" fill="rgb(255,153,0)" mask="url(#_mask_MqkFlK8Do9Ep7f1dum7LPBCiybxq2e4c)" vector-effect="non-scaling-stroke" stroke-width="8" stroke="rgb(81,48,0)" stroke-linejoin="miter" stroke-linecap="square" stroke-miterlimit="2"/><mask id="_mask_h42UTibvs4Y2qNqacgGH39of4JwbVbKj"><rect x="-373.835" y="-26.982" width="137.224" height="26.932" fill="white" stroke="none"/></mask><rect x="-373.835" y="-26.982" width="137.224" height="26.932" transform="matrix(0.691,-0.723,0.723,0.691,-84.678,-224.948)" fill="rgb(0,159,0)"/><rect x="-373.835" y="-26.982" width="137.224" height="26.932" transform="matrix(0.691,-0.723,0.723,0.691,-84.678,-224.948)" fill="rgb(0,159,0)" mask="url(#_mask_h42UTibvs4Y2qNqacgGH39of4JwbVbKj)" vector-effect="non-scaling-stroke" stroke-width="8" stroke="rgb(2,51,2)" stroke-linejoin="miter" stroke-linecap="square" stroke-miterlimit="2"/><mask id="_mask_N7S5C4LMHJim7J777HHrzu8utMNxekgx"><rect x="189.507" y="-26.982" width="137.224" height="26.932" fill="white" stroke="none"/></mask><rect x="189.507" y="-26.982" width="137.224" height="26.932" transform="matrix(0.691,-0.723,0.723,0.691,89.653,182.513)" fill="rgb(0,159,0)"/><rect x="189.507" y="-26.982" width="137.224" height="26.932" transform="matrix(0.691,-0.723,0.723,0.691,89.653,182.513)" fill="rgb(0,159,0)" mask="url(#_mask_N7S5C4LMHJim7J777HHrzu8utMNxekgx)" vector-effect="non-scaling-stroke" stroke-width="8" stroke="rgb(2,51,2)" stroke-linejoin="miter" stroke-linecap="square" stroke-miterlimit="2"/><mask id="_mask_YCpUmAoSXVSj4mHz3shj2jo3ePherqb3"><rect x="-59.562" y="-100.321" width="196.264" height="26.932" fill="white" stroke="none"/></mask><rect x="-59.562" y="-100.321" width="196.264" height="26.932" transform="matrix(0.481,0.877,-0.877,0.481,-56.127,-78.865)" fill="rgb(0,159,0)"/><rect x="-59.562" y="-100.321" width="196.264" height="26.932" transform="matrix(0.481,0.877,-0.877,0.481,-56.127,-78.865)" fill="rgb(0,159,0)" mask="url(#_mask_YCpUmAoSXVSj4mHz3shj2jo3ePherqb3)" vector-effect="non-scaling-stroke" stroke-width="8" stroke="rgb(2,51,2)" stroke-linejoin="miter" stroke-linecap="square" stroke-miterlimit="2"/><mask id="_mask_GOABPAdFC1KmEsETq6ojQsJUmn2DYYeZ"><rect x="503.781" y="-100.321" width="196.264" height="26.932" fill="white" stroke="none"/></mask><rect x="503.781" y="-100.321" width="196.264" height="26.932" transform="matrix(0.481,0.877,-0.877,0.481,236.102,-572.679)" fill="rgb(0,159,0)"/><rect x="503.781" y="-100.321" width="196.264" height="26.932" transform="matrix(0.481,0.877,-0.877,0.481,236.102,-572.679)" fill="rgb(0,159,0)" mask="url(#_mask_GOABPAdFC1KmEsETq6ojQsJUmn2DYYeZ)" vector-effect="non-scaling-stroke" stroke-width="8" stroke="rgb(2,51,2)" stroke-linejoin="miter" stroke-linecap="square" stroke-miterlimit="2"/><mask id="_mask_b7TttYub9GQBKtOVwypWWs5GOPpiRu50"><path d=" M -283.083 254.548 L -285.769 213.418 Q -292.898 215.426 -297.856 216.023 C -290.161 211.214 -286.216 201.369 -285.949 195.044 C -277.93 201.618 -271.924 211.848 -268.028 217.17 Q -275.184 213.977 -280.385 214.086 L -263.888 259.36 L -275.004 249.188 L -283.083 254.548 Z " fill="white" stroke="none"/></mask><path d=" M -283.083 254.548 L -285.769 213.418 Q -292.898 215.426 -297.856 216.023 C -290.161 211.214 -286.216 201.369 -285.949 195.044 C -277.93 201.618 -271.924 211.848 -268.028 217.17 Q -275.184 213.977 -280.385 214.086 L -263.888 259.36 L -275.004 249.188 L -283.083 254.548 Z " fill="rgb(255,153,0)"/><path d=" M -283.083 254.548 L -285.769 213.418 Q -292.898 215.426 -297.856 216.023 C -290.161 211.214 -286.216 201.369 -285.949 195.044 C -277.93 201.618 -271.924 211.848 -268.028 217.17 Q -275.184 213.977 -280.385 214.086 L -263.888 259.36 L -275.004 249.188 L -283.083 254.548 Z " fill="rgb(255,153,0)" mask="url(#_mask_b7TttYub9GQBKtOVwypWWs5GOPpiRu50)" vector-effect="non-scaling-stroke" stroke-width="4" stroke="rgb(81,48,0)" stroke-linejoin="miter" stroke-linecap="square" stroke-miterlimit="3"/><mask id="_mask_vfVuPZjldBSHC5WSZ5z9zHEsRGYXKfzd"><path d=" M 426.987 184.363 L 400.498 152.692 Q 394.818 156.115 390.732 158.169 C 396.418 153.398 393.875 146.941 393.032 144.264 C 400.913 144.016 411.923 146.995 416.11 147.742 Q 409.529 149.054 405.157 150.998 L 440.926 179.726 L 429.823 179.64 L 426.987 184.363 Z " fill="white" stroke="none"/></mask><path d=" M 426.987 184.363 L 400.498 152.692 Q 394.818 156.115 390.732 158.169 C 396.418 153.398 393.875 146.941 393.032 144.264 C 400.913 144.016 411.923 146.995 416.11 147.742 Q 409.529 149.054 405.157 150.998 L 440.926 179.726 L 429.823 179.64 L 426.987 184.363 Z " fill="rgb(255,153,0)"/><path d=" M 426.987 184.363 L 400.498 152.692 Q 394.818 156.115 390.732 158.169 C 396.418 153.398 393.875 146.941 393.032 144.264 C 400.913 144.016 411.923 146.995 416.11 147.742 Q 409.529 149.054 405.157 150.998 L 440.926 179.726 L 429.823 179.64 L 426.987 184.363 Z " fill="rgb(255,153,0)" mask="url(#_mask_vfVuPZjldBSHC5WSZ5z9zHEsRGYXKfzd)" vector-effect="non-scaling-stroke" stroke-width="4" stroke="rgb(81,48,0)" stroke-linejoin="miter" stroke-linecap="square" stroke-miterlimit="3"/><mask id="_mask_gppoCedlhzxhOUTxvkVELbh3HbehnsVB"><path d=" M 414.769 71.536 L 419.946 30.574 L 431.123 29.906 L 420.737 18.858 C 419.157 20.871 413.528 25.632 403.793 33.085 L 414.438 30.958 C 413.058 43.045 408.433 57.79 400.535 75.166 L 409.831 69.094 L 414.769 71.536 Z " fill="white" stroke="none"/></mask><path d=" M 414.769 71.536 L 419.946 30.574 L 431.123 29.906 L 420.737 18.858 C 419.157 20.871 413.528 25.632 403.793 33.085 L 414.438 30.958 C 413.058 43.045 408.433 57.79 400.535 75.166 L 409.831 69.094 L 414.769 71.536 Z " fill="rgb(255,153,0)"/><path d=" M 414.769 71.536 L 419.946 30.574 L 431.123 29.906 L 420.737 18.858 C 419.157 20.871 413.528 25.632 403.793 33.085 L 414.438 30.958 C 413.058 43.045 408.433 57.79 400.535 75.166 L 409.831 69.094 L 414.769 71.536 Z " fill="rgb(255,153,0)" mask="url(#_mask_gppoCedlhzxhOUTxvkVELbh3HbehnsVB)" vector-effect="non-scaling-stroke" stroke-width="4" stroke="rgb(81,48,0)" stroke-linejoin="miter" stroke-linecap="square" stroke-miterlimit="3"/><mask id="_mask_cp9k6576yRmfOGmDgHX2oJxQ9AmRSDS3"><path d=" M 435.012 -54.724 L 436.259 -95.993 L 447.322 -97.724 L 435.93 -107.731 C 434.549 -105.577 429.399 -100.3 420.419 -91.954 L 430.813 -95.085 C 430.592 -82.923 427.394 -67.804 421.189 -49.754 L 429.863 -56.684 L 435.012 -54.724 Z " fill="white" stroke="none"/></mask><path d=" M 435.012 -54.724 L 436.259 -95.993 L 447.322 -97.724 L 435.93 -107.731 C 434.549 -105.577 429.399 -100.3 420.419 -91.954 L 430.813 -95.085 C 430.592 -82.923 427.394 -67.804 421.189 -49.754 L 429.863 -56.684 L 435.012 -54.724 Z " fill="rgb(255,153,0)"/><path d=" M 435.012 -54.724 L 436.259 -95.993 L 447.322 -97.724 L 435.93 -107.731 C 434.549 -105.577 429.399 -100.3 420.419 -91.954 L 430.813 -95.085 C 430.592 -82.923 427.394 -67.804 421.189 -49.754 L 429.863 -56.684 L 435.012 -54.724 Z " fill="rgb(255,153,0)" mask="url(#_mask_cp9k6576yRmfOGmDgHX2oJxQ9AmRSDS3)" vector-effect="non-scaling-stroke" stroke-width="4" stroke="rgb(81,48,0)" stroke-linejoin="miter" stroke-linecap="square" stroke-miterlimit="3"/><mask id="_mask_jTIOKzvik1C0uHS9CexAiqrooqmU4rDU"><path d=" M -306.898 110.383 L -309.584 69.253 Q -316.713 71.26 -321.672 71.858 C -313.976 67.049 -310.031 57.204 -309.764 50.878 C -301.745 57.453 -295.739 67.683 -291.843 73.005 Q -298.999 69.812 -304.2 69.921 L -287.703 115.195 L -298.82 105.023 L -306.898 110.383 Z " fill="white" stroke="none"/></mask><path d=" M -306.898 110.383 L -309.584 69.253 Q -316.713 71.26 -321.672 71.858 C -313.976 67.049 -310.031 57.204 -309.764 50.878 C -301.745 57.453 -295.739 67.683 -291.843 73.005 Q -298.999 69.812 -304.2 69.921 L -287.703 115.195 L -298.82 105.023 L -306.898 110.383 Z " fill="rgb(255,153,0)"/><path d=" M -306.898 110.383 L -309.584 69.253 Q -316.713 71.26 -321.672 71.858 C -313.976 67.049 -310.031 57.204 -309.764 50.878 C -301.745 57.453 -295.739 67.683 -291.843 73.005 Q -298.999 69.812 -304.2 69.921 L -287.703 115.195 L -298.82 105.023 L -306.898 110.383 Z " fill="rgb(255,153,0)" mask="url(#_mask_jTIOKzvik1C0uHS9CexAiqrooqmU4rDU)" vector-effect="non-scaling-stroke" stroke-width="4" stroke="rgb(81,48,0)" stroke-linejoin="miter" stroke-linecap="square" stroke-miterlimit="3"/><mask id="_mask_sU1wPY61rkdvqzwQD8wwoD25KIdMWSnP"><path d=" M -212.363 34.681 L -171.799 27.369 Q -174.598 20.513 -175.751 15.653 C -170.105 22.757 -159.878 25.565 -153.562 25.115 C -159.189 33.826 -168.676 40.948 -173.524 45.42 Q -171.16 37.949 -171.855 32.794 L -214.976 54.297 L -206.125 42.103 L -212.363 34.681 Z " fill="white" stroke="none"/></mask><path d=" M -212.363 34.681 L -171.799 27.369 Q -174.598 20.513 -175.751 15.653 C -170.105 22.757 -159.878 25.565 -153.562 25.115 C -159.189 33.826 -168.676 40.948 -173.524 45.42 Q -171.16 37.949 -171.855 32.794 L -214.976 54.297 L -206.125 42.103 L -212.363 34.681 Z " fill="rgb(255,153,0)"/><path d=" M -212.363 34.681 L -171.799 27.369 Q -174.598 20.513 -175.751 15.653 C -170.105 22.757 -159.878 25.565 -153.562 25.115 C -159.189 33.826 -168.676 40.948 -173.524 45.42 Q -171.16 37.949 -171.855 32.794 L -214.976 54.297 L -206.125 42.103 L -212.363 34.681 Z " fill="rgb(255,153,0)" mask="url(#_mask_sU1wPY61rkdvqzwQD8wwoD25KIdMWSnP)" vector-effect="non-scaling-stroke" stroke-width="4" stroke="rgb(81,48,0)" stroke-linejoin="miter" stroke-linecap="square" stroke-miterlimit="3"/><mask id="_mask_8Cd10vmShy7cWky5G63QtqTN2nsrflWX"><path d=" M -77.561 11.436 L -36.997 4.124 Q -39.796 -2.733 -40.949 -7.592 C -35.302 -0.489 -25.075 2.32 -18.76 1.87 C -24.387 10.581 -33.874 17.703 -38.722 22.175 Q -36.357 14.704 -37.053 9.549 L -80.174 31.052 L -71.322 18.858 L -77.561 11.436 Z " fill="white" stroke="none"/></mask><path d=" M -77.561 11.436 L -36.997 4.124 Q -39.796 -2.733 -40.949 -7.592 C -35.302 -0.489 -25.075 2.32 -18.76 1.87 C -24.387 10.581 -33.874 17.703 -38.722 22.175 Q -36.357 14.704 -37.053 9.549 L -80.174 31.052 L -71.322 18.858 L -77.561 11.436 Z " fill="rgb(255,153,0)"/><path d=" M -77.561 11.436 L -36.997 4.124 Q -39.796 -2.733 -40.949 -7.592 C -35.302 -0.489 -25.075 2.32 -18.76 1.87 C -24.387 10.581 -33.874 17.703 -38.722 22.175 Q -36.357 14.704 -37.053 9.549 L -80.174 31.052 L -71.322 18.858 L -77.561 11.436 Z " fill="rgb(255,153,0)" mask="url(#_mask_8Cd10vmShy7cWky5G63QtqTN2nsrflWX)" vector-effect="non-scaling-stroke" stroke-width="4" stroke="rgb(81,48,0)" stroke-linejoin="miter" stroke-linecap="square" stroke-miterlimit="3"/><mask id="_mask_oHzIUNhpZcBtv3UJ4SjYbsjs507mUfDP"><path d=" M -7.742 -21.851 L -34.088 -53.55 Q -38.676 -47.736 -42.337 -44.339 C -38.936 -52.752 -41.53 -63.036 -45.032 -68.31 C -34.68 -67.704 -23.809 -62.957 -17.529 -60.94 Q -25.195 -59.318 -29.339 -56.173 L 10.616 -29.239 L -4.356 -30.936 L -7.742 -21.851 Z " fill="white" stroke="none"/></mask><path d=" M -7.742 -21.851 L -34.088 -53.55 Q -38.676 -47.736 -42.337 -44.339 C -38.936 -52.752 -41.53 -63.036 -45.032 -68.31 C -34.68 -67.704 -23.809 -62.957 -17.529 -60.94 Q -25.195 -59.318 -29.339 -56.173 L 10.616 -29.239 L -4.356 -30.936 L -7.742 -21.851 Z " fill="rgb(255,153,0)"/><path d=" M -7.742 -21.851 L -34.088 -53.55 Q -38.676 -47.736 -42.337 -44.339 C -38.936 -52.752 -41.53 -63.036 -45.032 -68.31 C -34.68 -67.704 -23.809 -62.957 -17.529 -60.94 Q -25.195 -59.318 -29.339 -56.173 L 10.616 -29.239 L -4.356 -30.936 L -7.742 -21.851 Z " fill="rgb(255,153,0)" mask="url(#_mask_oHzIUNhpZcBtv3UJ4SjYbsjs507mUfDP)" vector-effect="non-scaling-stroke" stroke-width="4" stroke="rgb(81,48,0)" stroke-linejoin="miter" stroke-linecap="square" stroke-miterlimit="3"/><mask id="_mask_56rkI2rpupXrp84mOOsfoQwBdeXWicRF"><path d=" M -260.294 183.993 Q -261.488 154.372 -264.426 132.275 C -266.843 133.321 -270.006 134.194 -273.923 134.894 C -268.019 130.721 -265.326 122.711 -265.4 117.667 C -258.723 122.535 -253.484 130.4 -250.144 134.458 C -254.271 133.194 -257.591 132.563 -260.113 132.563 Q -256.899 157.033 -239.586 186.743 L -255.028 177.337 L -260.294 183.993 Z " fill="white" stroke="none"/></mask><path d=" M -260.294 183.993 Q -261.488 154.372 -264.426 132.275 C -266.843 133.321 -270.006 134.194 -273.923 134.894 C -268.019 130.721 -265.326 122.711 -265.4 117.667 C -258.723 122.535 -253.484 130.4 -250.144 134.458 C -254.271 133.194 -257.591 132.563 -260.113 132.563 Q -256.899 157.033 -239.586 186.743 L -255.028 177.337 L -260.294 183.993 Z " fill="rgb(242,7,242)"/><path d=" M -260.294 183.993 Q -261.488 154.372 -264.426 132.275 C -266.843 133.321 -270.006 134.194 -273.923 134.894 C -268.019 130.721 -265.326 122.711 -265.4 117.667 C -258.723 122.535 -253.484 130.4 -250.144 134.458 C -254.271 133.194 -257.591 132.563 -260.113 132.563 Q -256.899 157.033 -239.586 186.743 L -255.028 177.337 L -260.294 183.993 Z " fill="rgb(242,7,242)" mask="url(#_mask_56rkI2rpupXrp84mOOsfoQwBdeXWicRF)" vector-effect="non-scaling-stroke" stroke-width="4" stroke="rgb(64,0,34)" stroke-linejoin="miter" stroke-linecap="square" stroke-miterlimit="3"/><mask id="_mask_3TTVJsknYGOxMKw2K1p8EqYFM5tQ9b6u"><path d=" M 303.048 183.993 Q 301.855 154.372 298.917 132.275 C 296.499 133.321 293.337 134.194 289.42 134.894 C 295.324 130.721 298.017 122.711 297.942 117.667 C 304.619 122.535 309.859 130.4 313.198 134.458 C 309.071 133.194 305.752 132.563 303.23 132.563 Q 306.443 157.033 323.757 186.743 L 308.315 177.337 L 303.048 183.993 Z " fill="white" stroke="none"/></mask><path d=" M 303.048 183.993 Q 301.855 154.372 298.917 132.275 C 296.499 133.321 293.337 134.194 289.42 134.894 C 295.324 130.721 298.017 122.711 297.942 117.667 C 304.619 122.535 309.859 130.4 313.198 134.458 C 309.071 133.194 305.752 132.563 303.23 132.563 Q 306.443 157.033 323.757 186.743 L 308.315 177.337 L 303.048 183.993 Z " fill="rgb(242,7,242)"/><path d=" M 303.048 183.993 Q 301.855 154.372 298.917 132.275 C 296.499 133.321 293.337 134.194 289.42 134.894 C 295.324 130.721 298.017 122.711 297.942 117.667 C 304.619 122.535 309.859 130.4 313.198 134.458 C 309.071 133.194 305.752 132.563 303.23 132.563 Q 306.443 157.033 323.757 186.743 L 308.315 177.337 L 303.048 183.993 Z " fill="rgb(242,7,242)" mask="url(#_mask_3TTVJsknYGOxMKw2K1p8EqYFM5tQ9b6u)" vector-effect="non-scaling-stroke" stroke-width="4" stroke="rgb(64,0,34)" stroke-linejoin="miter" stroke-linecap="square" stroke-miterlimit="3"/><mask id="_mask_PnHpF7wwlh6swaXyc0OHtzddNFxJKI7G"><path d=" M -276.008 57.535 Q -277.202 27.914 -280.139 5.817 C -282.557 6.863 -285.719 7.736 -289.637 8.435 C -283.732 4.262 -281.039 -3.747 -281.114 -8.791 C -274.437 -3.923 -269.197 3.942 -265.858 8 C -269.985 6.736 -273.304 6.105 -275.827 6.105 Q -272.613 30.575 -255.299 60.285 L -270.741 50.878 L -276.008 57.535 Z " fill="white" stroke="none"/></mask><path d=" M -276.008 57.535 Q -277.202 27.914 -280.139 5.817 C -282.557 6.863 -285.719 7.736 -289.637 8.435 C -283.732 4.262 -281.039 -3.747 -281.114 -8.791 C -274.437 -3.923 -269.197 3.942 -265.858 8 C -269.985 6.736 -273.304 6.105 -275.827 6.105 Q -272.613 30.575 -255.299 60.285 L -270.741 50.878 L -276.008 57.535 Z " fill="rgb(242,7,242)"/><path d=" M -276.008 57.535 Q -277.202 27.914 -280.139 5.817 C -282.557 6.863 -285.719 7.736 -289.637 8.435 C -283.732 4.262 -281.039 -3.747 -281.114 -8.791 C -274.437 -3.923 -269.197 3.942 -265.858 8 C -269.985 6.736 -273.304 6.105 -275.827 6.105 Q -272.613 30.575 -255.299 60.285 L -270.741 50.878 L -276.008 57.535 Z " fill="rgb(242,7,242)" mask="url(#_mask_PnHpF7wwlh6swaXyc0OHtzddNFxJKI7G)" vector-effect="non-scaling-stroke" stroke-width="4" stroke="rgb(64,0,34)" stroke-linejoin="miter" stroke-linecap="square" stroke-miterlimit="3"/><mask id="_mask_nQiJOIIB9IsGNb2wO1YkTqRZqEypzoUs"><path d=" M 287.335 57.535 Q 286.141 27.914 283.203 5.817 C 280.786 6.863 277.623 7.736 273.706 8.435 C 279.61 4.262 282.303 -3.747 282.229 -8.791 C 288.905 -3.923 294.145 3.942 297.485 8 C 293.358 6.736 290.038 6.105 287.516 6.105 Q 290.73 30.575 308.043 60.285 L 292.601 50.878 L 287.335 57.535 Z " fill="white" stroke="none"/></mask><path d=" M 287.335 57.535 Q 286.141 27.914 283.203 5.817 C 280.786 6.863 277.623 7.736 273.706 8.435 C 279.61 4.262 282.303 -3.747 282.229 -8.791 C 288.905 -3.923 294.145 3.942 297.485 8 C 293.358 6.736 290.038 6.105 287.516 6.105 Q 290.73 30.575 308.043 60.285 L 292.601 50.878 L 287.335 57.535 Z " fill="rgb(242,7,242)"/><path d=" M 287.335 57.535 Q 286.141 27.914 283.203 5.817 C 280.786 6.863 277.623 7.736 273.706 8.435 C 279.61 4.262 282.303 -3.747 282.229 -8.791 C 288.905 -3.923 294.145 3.942 297.485 8 C 293.358 6.736 290.038 6.105 287.516 6.105 Q 290.73 30.575 308.043 60.285 L 292.601 50.878 L 287.335 57.535 Z " fill="rgb(242,7,242)" mask="url(#_mask_nQiJOIIB9IsGNb2wO1YkTqRZqEypzoUs)" vector-effect="non-scaling-stroke" stroke-width="4" stroke="rgb(64,0,34)" stroke-linejoin="miter" stroke-linecap="square" stroke-miterlimit="3"/><mask id="_mask_Mym8eQr9H2w3CGWonNmYz0tQdLBtQ76m"><path d=" M -253.973 -11.118 C -253.371 -19.77 -246.108 -26.322 -237.764 -25.742 C -229.421 -25.161 -223.136 -17.665 -223.738 -9.013 C -224.34 -0.361 -231.603 6.191 -239.947 5.61 C -248.29 5.03 -254.575 -2.466 -253.973 -11.118 Z " fill="white" stroke="none"/></mask><path d=" M -253.973 -11.118 C -253.371 -19.77 -246.108 -26.322 -237.764 -25.742 C -229.421 -25.161 -223.136 -17.665 -223.738 -9.013 C -224.34 -0.361 -231.603 6.191 -239.947 5.61 C -248.29 5.03 -254.575 -2.466 -253.973 -11.118 Z " fill="rgb(242,7,242)"/><path d=" M -253.973 -11.118 C -253.371 -19.77 -246.108 -26.322 -237.764 -25.742 C -229.421 -25.161 -223.136 -17.665 -223.738 -9.013 C -224.34 -0.361 -231.603 6.191 -239.947 5.61 C -248.29 5.03 -254.575 -2.466 -253.973 -11.118 Z " fill="rgb(242,7,242)" mask="url(#_mask_Mym8eQr9H2w3CGWonNmYz0tQdLBtQ76m)" vector-effect="non-scaling-stroke" stroke-width="6" stroke="rgb(64,0,34)" stroke-linejoin="miter" stroke-linecap="square" stroke-miterlimit="3"/><mask id="_mask_gFoEAS7yl0aWtMh7sK00O9bZZ7VKfA9c"><path d=" M 309.37 -11.118 C 309.972 -19.77 317.235 -26.322 325.578 -25.742 C 333.922 -25.161 340.207 -17.665 339.604 -9.013 C 339.002 -0.361 331.739 6.191 323.396 5.61 C 315.052 5.03 308.767 -2.466 309.37 -11.118 Z " fill="white" stroke="none"/></mask><path d=" M 309.37 -11.118 C 309.972 -19.77 317.235 -26.322 325.578 -25.742 C 333.922 -25.161 340.207 -17.665 339.604 -9.013 C 339.002 -0.361 331.739 6.191 323.396 5.61 C 315.052 5.03 308.767 -2.466 309.37 -11.118 Z " fill="rgb(242,7,242)"/><path d=" M 309.37 -11.118 C 309.972 -19.77 317.235 -26.322 325.578 -25.742 C 333.922 -25.161 340.207 -17.665 339.604 -9.013 C 339.002 -0.361 331.739 6.191 323.396 5.61 C 315.052 5.03 308.767 -2.466 309.37 -11.118 Z " fill="rgb(242,7,242)" mask="url(#_mask_gFoEAS7yl0aWtMh7sK00O9bZZ7VKfA9c)" vector-effect="non-scaling-stroke" stroke-width="6" stroke="rgb(64,0,34)" stroke-linejoin="miter" stroke-linecap="square" stroke-miterlimit="3"/><mask id="_mask_R6KP513kixfJ2Ua67lrLKG4p7N4yQq4E"><path d=" M -118.99 -29.427 C -118.388 -38.079 -111.125 -44.631 -102.782 -44.05 C -94.438 -43.47 -88.153 -35.974 -88.755 -27.322 C -89.358 -18.67 -96.62 -12.118 -104.964 -12.698 C -113.307 -13.279 -119.592 -20.775 -118.99 -29.427 Z " fill="white" stroke="none"/></mask><path d=" M -118.99 -29.427 C -118.388 -38.079 -111.125 -44.631 -102.782 -44.05 C -94.438 -43.47 -88.153 -35.974 -88.755 -27.322 C -89.358 -18.67 -96.62 -12.118 -104.964 -12.698 C -113.307 -13.279 -119.592 -20.775 -118.99 -29.427 Z " fill="rgb(242,7,242)"/><path d=" M -118.99 -29.427 C -118.388 -38.079 -111.125 -44.631 -102.782 -44.05 C -94.438 -43.47 -88.153 -35.974 -88.755 -27.322 C -89.358 -18.67 -96.62 -12.118 -104.964 -12.698 C -113.307 -13.279 -119.592 -20.775 -118.99 -29.427 Z " fill="rgb(242,7,242)" mask="url(#_mask_R6KP513kixfJ2Ua67lrLKG4p7N4yQq4E)" vector-effect="non-scaling-stroke" stroke-width="6" stroke="rgb(64,0,34)" stroke-linejoin="miter" stroke-linecap="square" stroke-miterlimit="3"/><mask id="_mask_yGkOBpuaM8P2T4NNjETLNVo3AcVzjSgS"><path d=" M 444.352 -29.427 C 444.955 -38.079 452.217 -44.631 460.561 -44.05 C 468.904 -43.47 475.189 -35.974 474.587 -27.322 C 473.985 -18.67 466.722 -12.118 458.379 -12.698 C 450.035 -13.279 443.75 -20.775 444.352 -29.427 Z " fill="white" stroke="none"/></mask><path d=" M 444.352 -29.427 C 444.955 -38.079 452.217 -44.631 460.561 -44.05 C 468.904 -43.47 475.189 -35.974 474.587 -27.322 C 473.985 -18.67 466.722 -12.118 458.379 -12.698 C 450.035 -13.279 443.75 -20.775 444.352 -29.427 Z " fill="rgb(242,7,242)"/><path d=" M 444.352 -29.427 C 444.955 -38.079 452.217 -44.631 460.561 -44.05 C 468.904 -43.47 475.189 -35.974 474.587 -27.322 C 473.985 -18.67 466.722 -12.118 458.379 -12.698 C 450.035 -13.279 443.75 -20.775 444.352 -29.427 Z " fill="rgb(242,7,242)" mask="url(#_mask_yGkOBpuaM8P2T4NNjETLNVo3AcVzjSgS)" vector-effect="non-scaling-stroke" stroke-width="6" stroke="rgb(64,0,34)" stroke-linejoin="miter" stroke-linecap="square" stroke-miterlimit="3"/><mask id="_mask_Elg3vB32YLKT1WwLRZl17RKwHUQnUau8"><path d=" M 7.117 -70.64 C 0.816 -64.681 -8.965 -64.776 -14.712 -70.852 C -20.459 -76.928 -20.01 -86.7 -13.709 -92.659 C -7.408 -98.619 2.373 -98.524 8.121 -92.448 C 13.868 -86.371 13.418 -76.6 7.117 -70.64 Z " fill="white" stroke="none"/></mask><path d=" M 7.117 -70.64 C 0.816 -64.681 -8.965 -64.776 -14.712 -70.852 C -20.459 -76.928 -20.01 -86.7 -13.709 -92.659 C -7.408 -98.619 2.373 -98.524 8.121 -92.448 C 13.868 -86.371 13.418 -76.6 7.117 -70.64 Z " fill="rgb(242,7,242)"/><path d=" M 7.117 -70.64 C 0.816 -64.681 -8.965 -64.776 -14.712 -70.852 C -20.459 -76.928 -20.01 -86.7 -13.709 -92.659 C -7.408 -98.619 2.373 -98.524 8.121 -92.448 C 13.868 -86.371 13.418 -76.6 7.117 -70.64 Z " fill="rgb(242,7,242)" mask="url(#_mask_Elg3vB32YLKT1WwLRZl17RKwHUQnUau8)" vector-effect="non-scaling-stroke" stroke-width="6" stroke="rgb(64,0,34)" stroke-linejoin="miter" stroke-linecap="square" stroke-miterlimit="3"/><mask id="_mask_mEyqtQgArZi2YERFA0obZuENgnplSp6y"><path d=" M -93.168 -140.222 C -99.469 -134.262 -109.25 -134.357 -114.997 -140.433 C -120.744 -146.51 -120.295 -156.281 -113.994 -162.241 C -107.693 -168.2 -97.912 -168.105 -92.164 -162.029 C -86.417 -155.953 -86.867 -146.181 -93.168 -140.222 Z " fill="white" stroke="none"/></mask><path d=" M -93.168 -140.222 C -99.469 -134.262 -109.25 -134.357 -114.997 -140.433 C -120.744 -146.51 -120.295 -156.281 -113.994 -162.241 C -107.693 -168.2 -97.912 -168.105 -92.164 -162.029 C -86.417 -155.953 -86.867 -146.181 -93.168 -140.222 Z " fill="rgb(242,7,242)"/><path d=" M -93.168 -140.222 C -99.469 -134.262 -109.25 -134.357 -114.997 -140.433 C -120.744 -146.51 -120.295 -156.281 -113.994 -162.241 C -107.693 -168.2 -97.912 -168.105 -92.164 -162.029 C -86.417 -155.953 -86.867 -146.181 -93.168 -140.222 Z " fill="rgb(242,7,242)" mask="url(#_mask_mEyqtQgArZi2YERFA0obZuENgnplSp6y)" vector-effect="non-scaling-stroke" stroke-width="6" stroke="rgb(64,0,34)" stroke-linejoin="miter" stroke-linecap="square" stroke-miterlimit="3"/><mask id="_mask_vkWLh5YYPhQpFcmmrDHZIec8t2Zkensu"><path d=" M 570.46 -70.64 C 564.159 -64.681 554.377 -64.776 548.63 -70.852 C 542.883 -76.928 543.333 -86.7 549.634 -92.659 C 555.935 -98.619 565.716 -98.524 571.463 -92.448 C 577.21 -86.371 576.761 -76.6 570.46 -70.64 Z " fill="white" stroke="none"/></mask><path d=" M 570.46 -70.64 C 564.159 -64.681 554.377 -64.776 548.63 -70.852 C 542.883 -76.928 543.333 -86.7 549.634 -92.659 C 555.935 -98.619 565.716 -98.524 571.463 -92.448 C 577.21 -86.371 576.761 -76.6 570.46 -70.64 Z " fill="rgb(242,7,242)"/><path d=" M 570.46 -70.64 C 564.159 -64.681 554.377 -64.776 548.63 -70.852 C 542.883 -76.928 543.333 -86.7 549.634 -92.659 C 555.935 -98.619 565.716 -98.524 571.463 -92.448 C 577.21 -86.371 576.761 -76.6 570.46 -70.64 Z " fill="rgb(242,7,242)" mask="url(#_mask_vkWLh5YYPhQpFcmmrDHZIec8t2Zkensu)" vector-effect="non-scaling-stroke" stroke-width="6" stroke="rgb(64,0,34)" stroke-linejoin="miter" stroke-linecap="square" stroke-miterlimit="3"/><mask id="_mask_N108OOBRkd1PBnBexZuwfK56n3YOCKzT"><path d=" M 469.591 -140.222 C 463.29 -134.262 453.509 -134.357 447.762 -140.433 C 442.014 -146.51 442.464 -156.281 448.765 -162.241 C 455.066 -168.2 464.847 -168.105 470.594 -162.029 C 476.341 -155.953 475.892 -146.181 469.591 -140.222 Z " fill="white" stroke="none"/></mask><path d=" M 469.591 -140.222 C 463.29 -134.262 453.509 -134.357 447.762 -140.433 C 442.014 -146.51 442.464 -156.281 448.765 -162.241 C 455.066 -168.2 464.847 -168.105 470.594 -162.029 C 476.341 -155.953 475.892 -146.181 469.591 -140.222 Z " fill="rgb(242,7,242)"/><path d=" M 469.591 -140.222 C 463.29 -134.262 453.509 -134.357 447.762 -140.433 C 442.014 -146.51 442.464 -156.281 448.765 -162.241 C 455.066 -168.2 464.847 -168.105 470.594 -162.029 C 476.341 -155.953 475.892 -146.181 469.591 -140.222 Z " fill="rgb(242,7,242)" mask="url(#_mask_N108OOBRkd1PBnBexZuwfK56n3YOCKzT)" vector-effect="non-scaling-stroke" stroke-width="6" stroke="rgb(64,0,34)" stroke-linejoin="miter" stroke-linecap="square" stroke-miterlimit="3"/><mask id="_mask_GnT7LtwW5MOFnBvRFCdRIiWNKS54aCok"><path d=" M -211.448 -21.117 Q -181.803 -21.069 -159.603 -23.079 C -160.546 -25.538 -161.286 -28.734 -161.821 -32.678 C -157.899 -26.604 -150.01 -23.578 -144.967 -23.441 C -150.11 -16.974 -158.188 -12.068 -162.382 -8.902 C -160.946 -12.972 -160.177 -16.262 -160.071 -18.782 Q -184.654 -16.596 -215.063 -0.542 L -205.018 -15.577 L -211.448 -21.117 Z " fill="white" stroke="none"/></mask><path d=" M -211.448 -21.117 Q -181.803 -21.069 -159.603 -23.079 C -160.546 -25.538 -161.286 -28.734 -161.821 -32.678 C -157.899 -26.604 -150.01 -23.578 -144.967 -23.441 C -150.11 -16.974 -158.188 -12.068 -162.382 -8.902 C -160.946 -12.972 -160.177 -16.262 -160.071 -18.782 Q -184.654 -16.596 -215.063 -0.542 L -205.018 -15.577 L -211.448 -21.117 Z " fill="rgb(242,7,242)"/><path d=" M -211.448 -21.117 Q -181.803 -21.069 -159.603 -23.079 C -160.546 -25.538 -161.286 -28.734 -161.821 -32.678 C -157.899 -26.604 -150.01 -23.578 -144.967 -23.441 C -150.11 -16.974 -158.188 -12.068 -162.382 -8.902 C -160.946 -12.972 -160.177 -16.262 -160.071 -18.782 Q -184.654 -16.596 -215.063 -0.542 L -205.018 -15.577 L -211.448 -21.117 Z " fill="rgb(242,7,242)" mask="url(#_mask_GnT7LtwW5MOFnBvRFCdRIiWNKS54aCok)" vector-effect="non-scaling-stroke" stroke-width="4" stroke="rgb(64,0,34)" stroke-linejoin="miter" stroke-linecap="square" stroke-miterlimit="3"/><mask id="_mask_DUUTaC2U2ldIPbGTKrw405M4FxlONkCQ"><path d=" M 351.895 -21.117 Q 381.539 -21.069 403.74 -23.079 C 402.796 -25.538 402.056 -28.734 401.522 -32.678 C 405.444 -26.604 413.333 -23.578 418.375 -23.441 C 413.233 -16.974 405.155 -12.068 400.961 -8.902 C 402.397 -12.972 403.166 -16.262 403.271 -18.782 Q 378.689 -16.596 348.279 -0.542 L 358.324 -15.577 L 351.895 -21.117 Z " fill="white" stroke="none"/></mask><path d=" M 351.895 -21.117 Q 381.539 -21.069 403.74 -23.079 C 402.796 -25.538 402.056 -28.734 401.522 -32.678 C 405.444 -26.604 413.333 -23.578 418.375 -23.441 C 413.233 -16.974 405.155 -12.068 400.961 -8.902 C 402.397 -12.972 403.166 -16.262 403.271 -18.782 Q 378.689 -16.596 348.279 -0.542 L 358.324 -15.577 L 351.895 -21.117 Z " fill="rgb(242,7,242)"/><path d=" M 351.895 -21.117 Q 381.539 -21.069 403.74 -23.079 C 402.796 -25.538 402.056 -28.734 401.522 -32.678 C 405.444 -26.604 413.333 -23.578 418.375 -23.441 C 413.233 -16.974 405.155 -12.068 400.961 -8.902 C 402.397 -12.972 403.166 -16.262 403.271 -18.782 Q 378.689 -16.596 348.279 -0.542 L 358.324 -15.577 L 351.895 -21.117 Z " fill="rgb(242,7,242)" mask="url(#_mask_DUUTaC2U2ldIPbGTKrw405M4FxlONkCQ)" vector-effect="non-scaling-stroke" stroke-width="4" stroke="rgb(64,0,34)" stroke-linejoin="miter" stroke-linecap="square" stroke-miterlimit="3"/><mask id="_mask_ILC1Yo3Scdg1zsWr2o0boApXnVkRDFbV"><path d=" M -76.465 -39.426 Q -46.82 -39.378 -24.62 -41.388 C -25.563 -43.847 -26.304 -47.043 -26.838 -50.986 C -22.916 -44.913 -15.027 -41.887 -9.984 -41.749 C -15.127 -35.283 -23.205 -30.377 -27.399 -27.21 C -25.963 -31.281 -25.194 -34.571 -25.089 -37.091 Q -49.671 -34.905 -80.08 -18.851 L -70.035 -33.886 L -76.465 -39.426 Z " fill="white" stroke="none"/></mask><path d=" M -76.465 -39.426 Q -46.82 -39.378 -24.62 -41.388 C -25.563 -43.847 -26.304 -47.043 -26.838 -50.986 C -22.916 -44.913 -15.027 -41.887 -9.984 -41.749 C -15.127 -35.283 -23.205 -30.377 -27.399 -27.21 C -25.963 -31.281 -25.194 -34.571 -25.089 -37.091 Q -49.671 -34.905 -80.08 -18.851 L -70.035 -33.886 L -76.465 -39.426 Z " fill="rgb(242,7,242)"/><path d=" M -76.465 -39.426 Q -46.82 -39.378 -24.62 -41.388 C -25.563 -43.847 -26.304 -47.043 -26.838 -50.986 C -22.916 -44.913 -15.027 -41.887 -9.984 -41.749 C -15.127 -35.283 -23.205 -30.377 -27.399 -27.21 C -25.963 -31.281 -25.194 -34.571 -25.089 -37.091 Q -49.671 -34.905 -80.08 -18.851 L -70.035 -33.886 L -76.465 -39.426 Z " fill="rgb(242,7,242)" mask="url(#_mask_ILC1Yo3Scdg1zsWr2o0boApXnVkRDFbV)" vector-effect="non-scaling-stroke" stroke-width="4" stroke="rgb(64,0,34)" stroke-linejoin="miter" stroke-linecap="square" stroke-miterlimit="3"/><mask id="_mask_iFJz6Q0lRy2inu7eRaLX5oTLrdx0CBpw"><path d=" M 486.877 -39.426 Q 516.522 -39.378 538.722 -41.388 C 537.779 -43.847 537.039 -47.043 536.504 -50.986 C 540.426 -44.913 548.316 -41.887 553.358 -41.749 C 548.216 -35.283 540.137 -30.377 535.943 -27.21 C 537.379 -31.281 538.149 -34.571 538.254 -37.091 Q 513.672 -34.905 483.262 -18.851 L 493.307 -33.886 L 486.877 -39.426 Z " fill="white" stroke="none"/></mask><path d=" M 486.877 -39.426 Q 516.522 -39.378 538.722 -41.388 C 537.779 -43.847 537.039 -47.043 536.504 -50.986 C 540.426 -44.913 548.316 -41.887 553.358 -41.749 C 548.216 -35.283 540.137 -30.377 535.943 -27.21 C 537.379 -31.281 538.149 -34.571 538.254 -37.091 Q 513.672 -34.905 483.262 -18.851 L 493.307 -33.886 L 486.877 -39.426 Z " fill="rgb(242,7,242)"/><path d=" M 486.877 -39.426 Q 516.522 -39.378 538.722 -41.388 C 537.779 -43.847 537.039 -47.043 536.504 -50.986 C 540.426 -44.913 548.316 -41.887 553.358 -41.749 C 548.216 -35.283 540.137 -30.377 535.943 -27.21 C 537.379 -31.281 538.149 -34.571 538.254 -37.091 Q 513.672 -34.905 483.262 -18.851 L 493.307 -33.886 L 486.877 -39.426 Z " fill="rgb(242,7,242)" mask="url(#_mask_iFJz6Q0lRy2inu7eRaLX5oTLrdx0CBpw)" vector-effect="non-scaling-stroke" stroke-width="4" stroke="rgb(64,0,34)" stroke-linejoin="miter" stroke-linecap="square" stroke-miterlimit="3"/><mask id="_mask_SNKA0oSyE5FqSZ2sYSmLJya4VDxXo6xI"><path d=" M -30.949 -92.072 Q -52.733 -112.179 -70.432 -125.73 C -71.403 -123.282 -73.022 -120.428 -75.298 -117.164 C -74.072 -124.29 -77.83 -131.858 -81.448 -135.373 C -73.285 -136.651 -64.018 -134.791 -58.788 -134.282 C -62.601 -132.259 -65.394 -130.358 -67.178 -128.575 Q -47.607 -113.541 -14.358 -104.767 L -31.929 -100.503 L -30.949 -92.072 Z " fill="white" stroke="none"/></mask><path d=" M -30.949 -92.072 Q -52.733 -112.179 -70.432 -125.73 C -71.403 -123.282 -73.022 -120.428 -75.298 -117.164 C -74.072 -124.29 -77.83 -131.858 -81.448 -135.373 C -73.285 -136.651 -64.018 -134.791 -58.788 -134.282 C -62.601 -132.259 -65.394 -130.358 -67.178 -128.575 Q -47.607 -113.541 -14.358 -104.767 L -31.929 -100.503 L -30.949 -92.072 Z " fill="rgb(242,7,242)"/><path d=" M -30.949 -92.072 Q -52.733 -112.179 -70.432 -125.73 C -71.403 -123.282 -73.022 -120.428 -75.298 -117.164 C -74.072 -124.29 -77.83 -131.858 -81.448 -135.373 C -73.285 -136.651 -64.018 -134.791 -58.788 -134.282 C -62.601 -132.259 -65.394 -130.358 -67.178 -128.575 Q -47.607 -113.541 -14.358 -104.767 L -31.929 -100.503 L -30.949 -92.072 Z " fill="rgb(242,7,242)" mask="url(#_mask_SNKA0oSyE5FqSZ2sYSmLJya4VDxXo6xI)" vector-effect="non-scaling-stroke" stroke-width="4" stroke="rgb(64,0,34)" stroke-linejoin="miter" stroke-linecap="square" stroke-miterlimit="3"/><mask id="_mask_mDXeaeDcD0p2Zt3ptROTkgsF8TZluROM"><path d=" M 532.394 -92.072 Q 510.609 -112.179 492.91 -125.73 C 491.94 -123.282 490.321 -120.428 488.044 -117.164 C 489.27 -124.29 485.513 -131.858 481.895 -135.373 C 490.058 -136.651 499.324 -134.791 504.554 -134.282 C 500.742 -132.259 497.948 -130.358 496.165 -128.575 Q 515.736 -113.541 548.985 -104.767 L 531.413 -100.503 L 532.394 -92.072 Z " fill="white" stroke="none"/></mask><path d=" M 532.394 -92.072 Q 510.609 -112.179 492.91 -125.73 C 491.94 -123.282 490.321 -120.428 488.044 -117.164 C 489.27 -124.29 485.513 -131.858 481.895 -135.373 C 490.058 -136.651 499.324 -134.791 504.554 -134.282 C 500.742 -132.259 497.948 -130.358 496.165 -128.575 Q 515.736 -113.541 548.985 -104.767 L 531.413 -100.503 L 532.394 -92.072 Z " fill="rgb(242,7,242)"/><path d=" M 532.394 -92.072 Q 510.609 -112.179 492.91 -125.73 C 491.94 -123.282 490.321 -120.428 488.044 -117.164 C 489.27 -124.29 485.513 -131.858 481.895 -135.373 C 490.058 -136.651 499.324 -134.791 504.554 -134.282 C 500.742 -132.259 497.948 -130.358 496.165 -128.575 Q 515.736 -113.541 548.985 -104.767 L 531.413 -100.503 L 532.394 -92.072 Z " fill="rgb(242,7,242)" mask="url(#_mask_mDXeaeDcD0p2Zt3ptROTkgsF8TZluROM)" vector-effect="non-scaling-stroke" stroke-width="4" stroke="rgb(64,0,34)" stroke-linejoin="miter" stroke-linecap="square" stroke-miterlimit="3"/><rect x="130.214" y="-220.36" width="16.145" height="565.36" transform="matrix(1,0,0,1,0,0)" fill="rgb(0,0,0)"/></g></svg>