<?xml version="1.0" encoding="UTF-8" standalone="no"?><!-- Generator: Gravit.io --><svg xmlns="http://www.w3.org/2000/svg" xmlns:xlink="http://www.w3.org/1999/xlink" style="isolation:isolate" viewBox="-777.212 -2735.473 700 3771.309" width="700pt" height="3771.309pt"><defs><clipPath id="_clipPath_ctQldyHr4Zp4AjGlk0FNrWa0PmyfP1Fi"><rect x="-777.212" y="-2735.473" width="700" height="3771.309"/></clipPath></defs><g clip-path="url(#_clipPath_ctQldyHr4Zp4AjGlk0FNrWa0PmyfP1Fi)"><g opacity="0"><rect x="-777.212" y="-2735.473" width="700" height="3771.309" transform="matrix(1,0,0,1,0,0)" fill="rgb(0,128,0)"/></g><g><line x1="-693.724" y1="56.654" x2="-686.863" y2="88.574" vector-effect="non-scaling-stroke" stroke-width="5" stroke="rgb(255,153,0)" stroke-linejoin="miter" stroke-linecap="square" stroke-miterlimit="3"/><path d=" M -682.325 56.485 C -681.028 62.518 -684.873 68.468 -690.906 69.765 C -696.939 71.062 -702.889 67.217 -704.186 61.184 C -705.483 55.151 -701.638 49.201 -695.605 47.904 C -689.572 46.607 -683.621 50.452 -682.325 56.485 Z " fill="rgb(255,153,0)" stroke="none"/><path d=" M -698.104 89.479 L -682.474 108.991 L -676.243 84.78 Z " fill="rgb(255,153,0)" stroke="none"/><line x1="-693.724" y1="520.294" x2="-686.863" y2="552.215" vector-effect="non-scaling-stroke" stroke-width="5" stroke="rgb(255,153,0)" stroke-linejoin="miter" stroke-linecap="square" stroke-miterlimit="3"/><path d=" M -682.325 520.125 C -681.028 526.158 -684.873 532.109 -690.906 533.406 C -696.939 534.702 -702.889 530.857 -704.186 524.824 C -705.483 518.792 -701.638 512.841 -695.605 511.544 C -689.572 510.247 -683.621 514.093 -682.325 520.125 Z " fill="rgb(255,153,0)" stroke="none"/><path d=" M -698.104 553.12 L -682.474 572.631 L -676.243 548.421 Z " fill="rgb(255,153,0)" stroke="none"/><line x1="-656.583" y1="-9.717" x2="-690.293" y2="50.681" vector-effect="non-scaling-stroke" stroke-width="5" stroke="rgb(152,0,0)" stroke-linejoin="miter" stroke-linecap="square" stroke-miterlimit="3"/><path d=" M -647.907 -2.32 C -650.915 3.068 -657.731 5.001 -663.119 1.993 C -668.507 -1.014 -670.44 -7.83 -667.433 -13.218 C -664.425 -18.606 -657.609 -20.539 -652.221 -17.532 C -646.833 -14.525 -644.9 -7.709 -647.907 -2.32 Z " fill="rgb(152,0,0)" stroke="none"/><path d=" M -699.336 43.942 L -700.471 68.916 L -679.811 54.839 Z " fill="rgb(152,0,0)" stroke="none"/><line x1="-656.583" y1="453.923" x2="-690.293" y2="514.321" vector-effect="non-scaling-stroke" stroke-width="5" stroke="rgb(152,0,0)" stroke-linejoin="miter" stroke-linecap="square" stroke-miterlimit="3"/><path d=" M -647.907 461.32 C -650.915 466.708 -657.731 468.641 -663.119 465.634 C -668.507 462.626 -670.44 455.81 -667.433 450.422 C -664.425 445.034 -657.609 443.101 -652.221 446.108 C -646.833 449.116 -644.9 455.932 -647.907 461.32 Z " fill="rgb(152,0,0)" stroke="none"/><path d=" M -699.336 507.582 L -700.471 532.556 L -679.811 518.48 Z " fill="rgb(152,0,0)" stroke="none"/><mask id="_mask_V6eBmvU7ET2CxSRqwnUHpJBvhZzr8Oow"><path d=" M -598.318 -2265.043 C -710.267 -2240.993 -781.63 -2130.579 -757.58 -2018.63 C -733.53 -1906.681 -623.117 -1835.318 -511.168 -1859.368 C -399.219 -1883.418 -327.856 -1993.832 -351.906 -2105.781 C -375.956 -2217.73 -486.37 -2289.092 -598.318 -2265.043 Z " fill="white" stroke="none"/></mask><path d=" M -598.318 -2265.043 C -710.267 -2240.993 -781.63 -2130.579 -757.58 -2018.63 C -733.53 -1906.681 -623.117 -1835.318 -511.168 -1859.368 C -399.219 -1883.418 -327.856 -1993.832 -351.906 -2105.781 C -375.956 -2217.73 -486.37 -2289.092 -598.318 -2265.043 Z " fill="none"/><path d=" M -598.318 -2265.043 C -710.267 -2240.993 -781.63 -2130.579 -757.58 -2018.63 C -733.53 -1906.681 -623.117 -1835.318 -511.168 -1859.368 C -399.219 -1883.418 -327.856 -1993.832 -351.906 -2105.781 C -375.956 -2217.73 -486.37 -2289.092 -598.318 -2265.043 Z " fill="none" mask="url(#_mask_V6eBmvU7ET2CxSRqwnUHpJBvhZzr8Oow)" vector-effect="non-scaling-stroke" stroke-width="16" stroke="rgb(255,153,0)" stroke-linejoin="miter" stroke-linecap="square" stroke-miterlimit="3"/><mask id="_mask_txU816UvtE76d4JjbsXheWH7AFt4Ms5V"><path d=" M -598.318 -1578.867 C -710.267 -1554.817 -781.63 -1444.403 -757.58 -1332.454 C -733.53 -1220.505 -623.117 -1149.142 -511.168 -1173.192 C -399.219 -1197.242 -327.856 -1307.656 -351.906 -1419.605 C -375.956 -1531.554 -486.37 -1602.916 -598.318 -1578.867 Z " fill="white" stroke="none"/></mask><path d=" M -598.318 -1578.867 C -710.267 -1554.817 -781.63 -1444.403 -757.58 -1332.454 C -733.53 -1220.505 -623.117 -1149.142 -511.168 -1173.192 C -399.219 -1197.242 -327.856 -1307.656 -351.906 -1419.605 C -375.956 -1531.554 -486.37 -1602.916 -598.318 -1578.867 Z " fill="none"/><path d=" M -598.318 -1578.867 C -710.267 -1554.817 -781.63 -1444.403 -757.58 -1332.454 C -733.53 -1220.505 -623.117 -1149.142 -511.168 -1173.192 C -399.219 -1197.242 -327.856 -1307.656 -351.906 -1419.605 C -375.956 -1531.554 -486.37 -1602.916 -598.318 -1578.867 Z " fill="none" mask="url(#_mask_txU816UvtE76d4JjbsXheWH7AFt4Ms5V)" vector-effect="non-scaling-stroke" stroke-width="16" stroke="rgb(255,153,0)" stroke-linejoin="miter" stroke-linecap="square" stroke-miterlimit="3"/><mask id="_mask_U6rSBepSX8G3xZVUU6Gh6TNumGXlAajU"><path d=" M -598.318 -973.27 C -710.267 -949.22 -781.63 -838.806 -757.58 -726.857 C -733.53 -614.908 -623.117 -543.546 -511.168 -567.595 C -399.219 -591.645 -327.856 -702.059 -351.906 -814.008 C -375.956 -925.957 -486.37 -997.32 -598.318 -973.27 Z " fill="white" stroke="none"/></mask><path d=" M -598.318 -973.27 C -710.267 -949.22 -781.63 -838.806 -757.58 -726.857 C -733.53 -614.908 -623.117 -543.546 -511.168 -567.595 C -399.219 -591.645 -327.856 -702.059 -351.906 -814.008 C -375.956 -925.957 -486.37 -997.32 -598.318 -973.27 Z " fill="none"/><path d=" M -598.318 -973.27 C -710.267 -949.22 -781.63 -838.806 -757.58 -726.857 C -733.53 -614.908 -623.117 -543.546 -511.168 -567.595 C -399.219 -591.645 -327.856 -702.059 -351.906 -814.008 C -375.956 -925.957 -486.37 -997.32 -598.318 -973.27 Z " fill="none" mask="url(#_mask_U6rSBepSX8G3xZVUU6Gh6TNumGXlAajU)" vector-effect="non-scaling-stroke" stroke-width="16" stroke="rgb(255,153,0)" stroke-linejoin="miter" stroke-linecap="square" stroke-miterlimit="3"/><mask id="_mask_Y69YOfWjCjJtSQeZ7Kh0KkDnfG6IsjtF"><path d=" M -347.363 -2198.19 C -447.61 -2253.523 -573.92 -2217.058 -629.252 -2116.812 C -684.584 -2016.566 -648.119 -1890.256 -547.873 -1834.924 C -447.627 -1779.591 -321.317 -1816.056 -265.985 -1916.302 C -210.653 -2016.549 -247.117 -2142.858 -347.363 -2198.19 Z " fill="white" stroke="none"/></mask><path d=" M -347.363 -2198.19 C -447.61 -2253.523 -573.92 -2217.058 -629.252 -2116.812 C -684.584 -2016.566 -648.119 -1890.256 -547.873 -1834.924 C -447.627 -1779.591 -321.317 -1816.056 -265.985 -1916.302 C -210.653 -2016.549 -247.117 -2142.858 -347.363 -2198.19 Z " fill="none"/><path d=" M -347.363 -2198.19 C -447.61 -2253.523 -573.92 -2217.058 -629.252 -2116.812 C -684.584 -2016.566 -648.119 -1890.256 -547.873 -1834.924 C -447.627 -1779.591 -321.317 -1816.056 -265.985 -1916.302 C -210.653 -2016.549 -247.117 -2142.858 -347.363 -2198.19 Z " fill="none" mask="url(#_mask_Y69YOfWjCjJtSQeZ7Kh0KkDnfG6IsjtF)" vector-effect="non-scaling-stroke" stroke-width="16" stroke="rgb(152,0,0)" stroke-linejoin="miter" stroke-linecap="square" stroke-miterlimit="3"/><mask id="_mask_z5EJZfQgz2D6US5J7q0hiFFFcpPkQXbi"><path d=" M -347.363 -1512.015 C -447.61 -1567.347 -573.92 -1530.882 -629.252 -1430.636 C -684.584 -1330.39 -648.119 -1204.08 -547.873 -1148.748 C -447.627 -1093.416 -321.317 -1129.88 -265.985 -1230.126 C -210.653 -1330.373 -247.117 -1456.682 -347.363 -1512.015 Z " fill="white" stroke="none"/></mask><path d=" M -347.363 -1512.015 C -447.61 -1567.347 -573.92 -1530.882 -629.252 -1430.636 C -684.584 -1330.39 -648.119 -1204.08 -547.873 -1148.748 C -447.627 -1093.416 -321.317 -1129.88 -265.985 -1230.126 C -210.653 -1330.373 -247.117 -1456.682 -347.363 -1512.015 Z " fill="none"/><path d=" M -347.363 -1512.015 C -447.61 -1567.347 -573.92 -1530.882 -629.252 -1430.636 C -684.584 -1330.39 -648.119 -1204.08 -547.873 -1148.748 C -447.627 -1093.416 -321.317 -1129.88 -265.985 -1230.126 C -210.653 -1330.373 -247.117 -1456.682 -347.363 -1512.015 Z " fill="none" mask="url(#_mask_z5EJZfQgz2D6US5J7q0hiFFFcpPkQXbi)" vector-effect="non-scaling-stroke" stroke-width="16" stroke="rgb(152,0,0)" stroke-linejoin="miter" stroke-linecap="square" stroke-miterlimit="3"/><mask id="_mask_v2J6hBifuq8ODPxu7SvlaLK0N4yfyusZ"><path d=" M -347.363 -906.418 C -447.61 -961.75 -573.92 -925.285 -629.252 -825.039 C -684.584 -724.793 -648.119 -598.483 -547.873 -543.151 C -447.627 -487.819 -321.317 -524.283 -265.985 -624.529 C -210.653 -724.776 -247.117 -851.086 -347.363 -906.418 Z " fill="white" stroke="none"/></mask><path d=" M -347.363 -906.418 C -447.61 -961.75 -573.92 -925.285 -629.252 -825.039 C -684.584 -724.793 -648.119 -598.483 -547.873 -543.151 C -447.627 -487.819 -321.317 -524.283 -265.985 -624.529 C -210.653 -724.776 -247.117 -851.086 -347.363 -906.418 Z " fill="none"/><path d=" M -347.363 -906.418 C -447.61 -961.75 -573.92 -925.285 -629.252 -825.039 C -684.584 -724.793 -648.119 -598.483 -547.873 -543.151 C -447.627 -487.819 -321.317 -524.283 -265.985 -624.529 C -210.653 -724.776 -247.117 -851.086 -347.363 -906.418 Z " fill="none" mask="url(#_mask_v2J6hBifuq8ODPxu7SvlaLK0N4yfyusZ)" vector-effect="non-scaling-stroke" stroke-width="16" stroke="rgb(152,0,0)" stroke-linejoin="miter" stroke-linecap="square" stroke-miterlimit="3"/><mask id="_mask_5KmIEGrohlhlrbgCTgpuGcvlL1Pqja5r"><circle vector-effect="non-scaling-stroke" cx="-436.71488605562536" cy="-1889.1808945178345" r="207.46499783754322" fill="white" stroke="none"/></mask><circle vector-effect="non-scaling-stroke" cx="-436.71488605562536" cy="-1889.1808945178345" r="207.46499783754322" fill="none"/><circle vector-effect="non-scaling-stroke" cx="-436.71488605562536" cy="-1889.1808945178345" r="207.46499783754322" fill="none" mask="url(#_mask_5KmIEGrohlhlrbgCTgpuGcvlL1Pqja5r)" stroke-width="16" stroke="rgb(0,0,255)" stroke-linejoin="miter" stroke-linecap="square" stroke-miterlimit="3"/><mask id="_mask_HDa9AEpTWmTGQdid8k5ZsIQTEloI7dAH"><circle vector-effect="non-scaling-stroke" cx="-436.71488605562524" cy="-1203.004973491742" r="207.46499783754317" fill="white" stroke="none"/></mask><circle vector-effect="non-scaling-stroke" cx="-436.71488605562524" cy="-1203.004973491742" r="207.46499783754317" fill="none"/><circle vector-effect="non-scaling-stroke" cx="-436.71488605562524" cy="-1203.004973491742" r="207.46499783754317" fill="none" mask="url(#_mask_HDa9AEpTWmTGQdid8k5ZsIQTEloI7dAH)" stroke-width="16" stroke="rgb(0,0,255)" stroke-linejoin="miter" stroke-linecap="square" stroke-miterlimit="3"/><mask id="_mask_RmZ1RmckiQoDhcdPUQiGuYBPPsovZtIP"><circle vector-effect="non-scaling-stroke" cx="-436.71488605562524" cy="-597.4080977538633" r="207.46499783754317" fill="white" stroke="none"/></mask><circle vector-effect="non-scaling-stroke" cx="-436.71488605562524" cy="-597.4080977538633" r="207.46499783754317" fill="none"/><circle vector-effect="non-scaling-stroke" cx="-436.71488605562524" cy="-597.4080977538633" r="207.46499783754317" fill="none" mask="url(#_mask_RmZ1RmckiQoDhcdPUQiGuYBPPsovZtIP)" stroke-width="16" stroke="rgb(0,0,255)" stroke-linejoin="miter" stroke-linecap="square" stroke-miterlimit="3"/><g><rect x="-455.976" y="-1908.442" width="38.522" height="38.522" transform="matrix(1,0,0,1,0,0)" fill="rgb(1,1,130)"/><rect x="-452.274" y="-1904.74" width="31.118" height="31.118" transform="matrix(1,0,0,1,0,0)" fill="rgb(0,0,255)"/></g><g><rect x="-455.976" y="-1222.266" width="38.522" height="38.522" transform="matrix(1,0,0,1,0,0)" fill="rgb(1,1,130)"/><rect x="-452.274" y="-1218.564" width="31.118" height="31.118" transform="matrix(1,0,0,1,0,0)" fill="rgb(0,0,255)"/></g><g><rect x="-455.976" y="-616.669" width="38.522" height="38.522" transform="matrix(1,0,0,1,0,0)" fill="rgb(1,1,130)"/><rect x="-452.274" y="-612.967" width="31.118" height="31.118" transform="matrix(1,0,0,1,0,0)" fill="rgb(0,0,255)"/></g><g><rect x="-455.976" y="-28.68" width="38.522" height="38.522" transform="matrix(1,0,0,1,0,0)" fill="rgb(1,1,130)"/><rect x="-452.274" y="-24.978" width="31.118" height="31.118" transform="matrix(1,0,0,1,0,0)" fill="rgb(0,0,255)"/></g><g><rect x="-455.976" y="434.961" width="38.522" height="38.522" transform="matrix(1,0,0,1,0,0)" fill="rgb(1,1,130)"/><rect x="-452.274" y="438.663" width="31.118" height="31.118" transform="matrix(1,0,0,1,0,0)" fill="rgb(0,0,255)"/></g><g><rect x="-455.976" y="894.334" width="38.522" height="38.522" transform="matrix(1,0,0,1,0,0)" fill="rgb(1,1,130)"/><rect x="-452.274" y="898.035" width="31.118" height="31.118" transform="matrix(1,0,0,1,0,0)" fill="rgb(0,0,255)"/></g><g><rect x="-455.976" y="-2536.972" width="38.522" height="38.522" transform="matrix(1,0,0,1,0,0)" fill="rgb(1,1,130)"/><rect x="-452.274" y="-2533.27" width="31.118" height="31.118" transform="matrix(1,0,0,1,0,0)" fill="rgb(0,0,255)"/></g><line x1="-436.715" y1="-1203.005" x2="-642.826" y2="-1203.005" vector-effect="non-scaling-stroke" stroke-width="5" stroke="rgb(255,0,0)" stroke-linejoin="miter" stroke-linecap="square" stroke-miterlimit="3"/><path d=" M -438.945 -1191.825 C -445.116 -1191.825 -450.126 -1196.834 -450.126 -1203.005 C -450.126 -1209.176 -445.116 -1214.185 -438.945 -1214.185 C -432.775 -1214.185 -427.765 -1209.176 -427.765 -1203.005 C -427.765 -1196.834 -432.775 -1191.825 -438.945 -1191.825 Z " fill="rgb(255,0,0)" stroke="none"/><path d=" M -641.349 -1214.185 L -663.709 -1203.005 L -641.349 -1191.825 Z " fill="rgb(255,0,0)" stroke="none"/><line x1="-517.214" y1="-597.408" x2="-651.552" y2="-597.408" vector-effect="non-scaling-stroke" stroke-width="5" stroke="rgb(0,0,255)" stroke-linejoin="miter" stroke-linecap="square" stroke-miterlimit="3"/><path d=" M -519.444 -586.228 C -525.615 -586.228 -530.625 -591.238 -530.625 -597.408 C -530.625 -603.579 -525.615 -608.588 -519.444 -608.588 C -513.274 -608.588 -508.264 -603.579 -508.264 -597.408 C -508.264 -591.238 -513.274 -586.228 -519.444 -586.228 Z " fill="rgb(0,0,255)" stroke="none"/><path d=" M -650.074 -608.588 L -672.435 -597.408 L -650.074 -586.228 Z " fill="rgb(0,0,255)" stroke="none"/><line x1="-517.214" y1="-9.419" x2="-651.552" y2="-9.419" vector-effect="non-scaling-stroke" stroke-width="5" stroke="rgb(0,0,255)" stroke-linejoin="miter" stroke-linecap="square" stroke-miterlimit="3"/><path d=" M -519.444 1.762 C -525.615 1.762 -530.625 -3.248 -530.625 -9.419 C -530.625 -15.589 -525.615 -20.599 -519.444 -20.599 C -513.274 -20.599 -508.264 -15.589 -508.264 -9.419 C -508.264 -3.248 -513.274 1.762 -519.444 1.762 Z " fill="rgb(0,0,255)" stroke="none"/><path d=" M -650.074 -20.599 L -672.435 -9.419 L -650.074 1.762 Z " fill="rgb(0,0,255)" stroke="none"/><line x1="-517.214" y1="454.222" x2="-651.552" y2="454.222" vector-effect="non-scaling-stroke" stroke-width="5" stroke="rgb(0,0,255)" stroke-linejoin="miter" stroke-linecap="square" stroke-miterlimit="3"/><path d=" M -519.444 465.402 C -525.615 465.402 -530.625 460.392 -530.625 454.222 C -530.625 448.051 -525.615 443.041 -519.444 443.041 C -513.274 443.041 -508.264 448.051 -508.264 454.222 C -508.264 460.392 -513.274 465.402 -519.444 465.402 Z " fill="rgb(0,0,255)" stroke="none"/><path d=" M -650.074 443.041 L -672.435 454.222 L -650.074 465.402 Z " fill="rgb(0,0,255)" stroke="none"/><line x1="-517.214" y1="454.222" x2="-680.769" y2="554.601" vector-effect="non-scaling-stroke" stroke-width="5" stroke="rgb(242,7,242)" stroke-linejoin="miter" stroke-linecap="square" stroke-miterlimit="3"/><path d=" M -513.267 464.917 C -518.526 468.145 -525.416 466.496 -528.644 461.237 C -531.871 455.978 -530.222 449.087 -524.963 445.86 C -519.704 442.632 -512.814 444.281 -509.586 449.54 C -506.358 454.799 -508.008 461.69 -513.267 464.917 Z " fill="rgb(242,7,242)" stroke="none"/><path d=" M -685.358 544.3 L -698.567 565.525 L -673.661 563.357 Z " fill="rgb(242,7,242)" stroke="none"/><line x1="-517.214" y1="913.594" x2="-680.769" y2="1013.974" vector-effect="non-scaling-stroke" stroke-width="5" stroke="rgb(242,7,242)" stroke-linejoin="miter" stroke-linecap="square" stroke-miterlimit="3"/><path d=" M -513.267 924.29 C -518.526 927.518 -525.416 925.868 -528.644 920.609 C -531.871 915.35 -530.222 908.46 -524.963 905.232 C -519.704 902.005 -512.814 903.654 -509.586 908.913 C -506.358 914.172 -508.008 921.062 -513.267 924.29 Z " fill="rgb(242,7,242)" stroke="none"/><path d=" M -685.358 1003.672 L -698.567 1024.898 L -673.661 1022.73 Z " fill="rgb(242,7,242)" stroke="none"/><g><rect x="-574.004" y="-2081.466" width="38.522" height="38.522" transform="matrix(-0.21,-0.978,0.978,-0.21,1344.945,-3037.713)" fill="rgb(217,130,0)"/><rect x="-570.302" y="-2077.765" width="31.118" height="31.118" transform="matrix(-0.21,-0.978,0.978,-0.21,1344.945,-3037.713)" fill="rgb(255,153,0)"/></g><g><rect x="-574.004" y="-1395.29" width="38.522" height="38.522" transform="matrix(-0.21,-0.978,0.978,-0.21,674.075,-2207.415)" fill="rgb(217,130,0)"/><rect x="-570.302" y="-1391.589" width="31.118" height="31.118" transform="matrix(-0.21,-0.978,0.978,-0.21,674.075,-2207.415)" fill="rgb(255,153,0)"/></g><g><rect x="-574.004" y="-789.693" width="38.522" height="38.522" transform="matrix(-0.21,-0.978,0.978,-0.21,81.987,-1474.621)" fill="rgb(217,130,0)"/><rect x="-570.302" y="-785.992" width="31.118" height="31.118" transform="matrix(-0.21,-0.978,0.978,-0.21,81.987,-1474.621)" fill="rgb(255,153,0)"/></g><g><rect x="-574.004" y="-201.704" width="38.522" height="38.522" transform="matrix(-0.21,-0.978,0.978,-0.21,-492.886,-763.132)" fill="rgb(217,130,0)"/><rect x="-570.302" y="-198.002" width="31.118" height="31.118" transform="matrix(-0.21,-0.978,0.978,-0.21,-492.886,-763.132)" fill="rgb(255,153,0)"/></g><g><rect x="-574.004" y="261.936" width="38.522" height="38.522" transform="matrix(-0.21,-0.978,0.978,-0.21,-946.184,-202.11)" fill="rgb(217,130,0)"/><rect x="-570.302" y="265.638" width="31.118" height="31.118" transform="matrix(-0.21,-0.978,0.978,-0.21,-946.184,-202.11)" fill="rgb(255,153,0)"/></g><g><rect x="-574.004" y="721.309" width="38.522" height="38.522" transform="matrix(-0.21,-0.978,0.978,-0.21,-1395.31,353.748)" fill="rgb(217,130,0)"/><rect x="-570.302" y="725.011" width="31.118" height="31.118" transform="matrix(-0.21,-0.978,0.978,-0.21,-1395.31,353.748)" fill="rgb(255,153,0)"/></g><g><rect x="-574.004" y="-2709.996" width="38.522" height="38.522" transform="matrix(-0.21,-0.978,0.978,-0.21,1959.454,-3798.258)" fill="rgb(217,130,0)"/><rect x="-570.302" y="-2706.294" width="31.118" height="31.118" transform="matrix(-0.21,-0.978,0.978,-0.21,1959.454,-3798.258)" fill="rgb(255,153,0)"/></g><line x1="-554.743" y1="-1376.029" x2="-511.452" y2="-1174.516" vector-effect="non-scaling-stroke" stroke-width="5" stroke="rgb(255,0,0)" stroke-linejoin="miter" stroke-linecap="square" stroke-miterlimit="3"/><path d=" M -543.344 -1376.197 C -542.048 -1370.164 -545.893 -1364.214 -551.926 -1362.918 C -557.959 -1361.622 -563.91 -1365.467 -565.206 -1371.5 C -566.502 -1377.533 -562.656 -1383.484 -556.623 -1384.78 C -550.59 -1386.076 -544.64 -1382.23 -543.344 -1376.197 Z " fill="rgb(255,0,0)" stroke="none"/><path d=" M -522.693 -1173.612 L -507.066 -1154.098 L -500.832 -1178.309 Z " fill="rgb(255,0,0)" stroke="none"/><line x1="-517.288" y1="-596.675" x2="-510.426" y2="-564.754" vector-effect="non-scaling-stroke" stroke-width="5" stroke="rgb(255,153,0)" stroke-linejoin="miter" stroke-linecap="square" stroke-miterlimit="3"/><path d=" M -505.888 -596.844 C -504.592 -590.811 -508.437 -584.86 -514.469 -583.564 C -520.502 -582.267 -526.453 -586.112 -527.75 -592.145 C -529.046 -598.177 -525.201 -604.128 -519.169 -605.425 C -513.136 -606.722 -507.185 -602.877 -505.888 -596.844 Z " fill="rgb(255,153,0)" stroke="none"/><path d=" M -521.667 -563.849 L -506.038 -544.338 L -499.806 -568.549 Z " fill="rgb(255,153,0)" stroke="none"/><g><rect x="-466.879" y="-2035.818" width="38.522" height="38.522" transform="matrix(0.483,-0.875,0.875,0.483,1534.162,-1433.967)" fill="rgb(104,0,0)"/><rect x="-463.177" y="-2032.116" width="31.118" height="31.118" transform="matrix(0.483,-0.875,0.875,0.483,1534.162,-1433.967)" fill="rgb(152,0,0)"/></g><g><rect x="-466.879" y="-1349.642" width="38.522" height="38.522" transform="matrix(0.483,-0.875,0.875,0.483,933.422,-1079.377)" fill="rgb(104,0,0)"/><rect x="-463.177" y="-1345.94" width="31.118" height="31.118" transform="matrix(0.483,-0.875,0.875,0.483,933.422,-1079.377)" fill="rgb(152,0,0)"/></g><g><rect x="-466.879" y="-744.045" width="38.522" height="38.522" transform="matrix(0.483,-0.875,0.875,0.483,403.229,-766.427)" fill="rgb(104,0,0)"/><rect x="-463.177" y="-740.343" width="31.118" height="31.118" transform="matrix(0.483,-0.875,0.875,0.483,403.229,-766.427)" fill="rgb(152,0,0)"/></g><g><rect x="-466.879" y="-156.056" width="38.522" height="38.522" transform="matrix(0.483,-0.875,0.875,0.483,-111.55,-462.576)" fill="rgb(104,0,0)"/><rect x="-463.177" y="-152.354" width="31.118" height="31.118" transform="matrix(0.483,-0.875,0.875,0.483,-111.55,-462.576)" fill="rgb(152,0,0)"/></g><g><rect x="-466.879" y="307.585" width="38.522" height="38.522" transform="matrix(0.483,-0.875,0.875,0.483,-517.463,-222.983)" fill="rgb(104,0,0)"/><rect x="-463.177" y="311.286" width="31.118" height="31.118" transform="matrix(0.483,-0.875,0.875,0.483,-517.463,-222.983)" fill="rgb(152,0,0)"/></g><g><rect x="-466.879" y="766.957" width="38.522" height="38.522" transform="matrix(0.483,-0.875,0.875,0.483,-919.639,14.404)" fill="rgb(104,0,0)"/><rect x="-463.177" y="770.659" width="31.118" height="31.118" transform="matrix(0.483,-0.875,0.875,0.483,-919.639,14.404)" fill="rgb(152,0,0)"/></g><g><rect x="-466.879" y="-2664.348" width="38.522" height="38.522" transform="matrix(0.483,-0.875,0.875,0.483,2084.433,-1758.768)" fill="rgb(104,0,0)"/><rect x="-463.177" y="-2660.646" width="31.118" height="31.118" transform="matrix(0.483,-0.875,0.875,0.483,2084.433,-1758.768)" fill="rgb(152,0,0)"/></g><line x1="-447.618" y1="-1330.381" x2="-547.219" y2="-1149.933" vector-effect="non-scaling-stroke" stroke-width="5" stroke="rgb(255,0,0)" stroke-linejoin="miter" stroke-linecap="square" stroke-miterlimit="3"/><path d=" M -438.908 -1323.026 C -441.89 -1317.623 -448.696 -1315.658 -454.099 -1318.64 C -459.501 -1321.622 -461.466 -1328.429 -458.484 -1333.831 C -455.502 -1339.233 -448.696 -1341.198 -443.293 -1338.217 C -437.891 -1335.235 -435.926 -1328.428 -438.908 -1323.026 Z " fill="rgb(255,0,0)" stroke="none"/><path d=" M -556.293 -1156.629 L -557.31 -1131.65 L -536.716 -1145.824 Z " fill="rgb(255,0,0)" stroke="none"/><line x1="-517.288" y1="-597.408" x2="-550.998" y2="-537.01" vector-effect="non-scaling-stroke" stroke-width="5" stroke="rgb(152,0,0)" stroke-linejoin="miter" stroke-linecap="square" stroke-miterlimit="3"/><path d=" M -508.612 -590.012 C -511.62 -584.623 -518.436 -582.69 -523.824 -585.698 C -529.212 -588.705 -531.145 -595.521 -528.137 -600.909 C -525.13 -606.298 -518.314 -608.23 -512.926 -605.223 C -507.538 -602.216 -505.605 -595.4 -508.612 -590.012 Z " fill="rgb(152,0,0)" stroke="none"/><path d=" M -560.041 -543.749 L -561.176 -518.775 L -540.515 -532.852 Z " fill="rgb(152,0,0)" stroke="none"/><g><circle vector-effect="non-scaling-stroke" cx="-517.4125252988231" cy="-1889.180894517835" r="9.153063922233628" fill="rgb(64,0,34)"/><circle vector-effect="non-scaling-stroke" cx="-517.4125252988231" cy="-1889.1808945178348" r="7.357072656168839" fill="rgb(242,7,242)"/><g opacity="0.41"><path d=" M -519.48 -1882.641 C -515.566 -1885.334 -516.191 -1889.469 -517.653 -1891.056 C -519.7 -1893.278 -521.441 -1895.7 -515.874 -1896.009 C -505.992 -1893.16 -510.998 -1879.564 -519.48 -1882.641 Z " fill="rgb(152,0,0)"/></g></g><g><circle vector-effect="non-scaling-stroke" cx="-517.4125252988231" cy="-1203.0049734917422" r="9.153063922233628" fill="rgb(64,0,34)"/><circle vector-effect="non-scaling-stroke" cx="-517.4125252988231" cy="-1203.004973491742" r="7.357072656168839" fill="rgb(242,7,242)"/><g opacity="0.41"><path d=" M -519.48 -1196.465 C -515.566 -1199.158 -516.191 -1203.293 -517.653 -1204.88 C -519.7 -1207.102 -521.441 -1209.524 -515.874 -1209.833 C -505.992 -1206.984 -510.998 -1193.388 -519.48 -1196.465 Z " fill="rgb(152,0,0)"/></g></g><g><circle vector-effect="non-scaling-stroke" cx="-517.4125252988231" cy="-597.4080977538633" r="9.153063922233628" fill="rgb(64,0,34)"/><circle vector-effect="non-scaling-stroke" cx="-517.4125252988231" cy="-597.4080977538632" r="7.357072656168839" fill="rgb(242,7,242)"/><g opacity="0.41"><path d=" M -519.48 -590.868 C -515.566 -593.561 -516.191 -597.697 -517.653 -599.283 C -519.7 -601.505 -521.441 -603.927 -515.874 -604.236 C -505.992 -601.387 -510.998 -587.791 -519.48 -590.868 Z " fill="rgb(152,0,0)"/></g></g><g><circle vector-effect="non-scaling-stroke" cx="-517.4125252988231" cy="-9.418745717291358" r="9.153063922233628" fill="rgb(64,0,34)"/><circle vector-effect="non-scaling-stroke" cx="-517.4125252988231" cy="-9.418745717290903" r="7.357072656168839" fill="rgb(242,7,242)"/><g opacity="0.41"><path d=" M -519.48 -2.879 C -515.566 -5.572 -516.191 -9.707 -517.653 -11.294 C -519.7 -13.516 -521.441 -15.938 -515.874 -16.247 C -505.992 -13.398 -510.998 0.198 -519.48 -2.879 Z " fill="rgb(152,0,0)"/></g></g><g><circle vector-effect="non-scaling-stroke" cx="-517.4125252988231" cy="454.2217307700705" r="9.153063922233628" fill="rgb(64,0,34)"/><circle vector-effect="non-scaling-stroke" cx="-517.4125252988231" cy="454.2217307700705" r="7.357072656168839" fill="rgb(242,7,242)"/><g opacity="0.41"><path d=" M -519.48 460.761 C -515.566 458.069 -516.191 453.933 -517.653 452.346 C -519.7 450.125 -521.441 447.703 -515.874 447.394 C -505.992 450.243 -510.998 463.839 -519.48 460.761 Z " fill="rgb(152,0,0)"/></g></g><g><circle vector-effect="non-scaling-stroke" cx="-647.4297750174463" cy="993.5475252787348" r="9.153063922233628" fill="rgb(64,0,34)"/><circle vector-effect="non-scaling-stroke" cx="-647.4297750174463" cy="993.5475252787342" r="7.357072656168839" fill="rgb(242,7,242)"/><g opacity="0.41"><path d=" M -649.497 1000.087 C -645.583 997.394 -646.208 993.259 -647.67 991.672 C -649.717 989.45 -651.458 987.028 -645.891 986.719 C -636.009 989.568 -641.015 1003.165 -649.497 1000.087 Z " fill="rgb(152,0,0)"/></g></g><g><circle vector-effect="non-scaling-stroke" cx="-517.4125252988231" cy="-2517.7105764137686" r="9.153063922233628" fill="rgb(64,0,34)"/><circle vector-effect="non-scaling-stroke" cx="-517.4125252988231" cy="-2517.7105764137686" r="7.357072656168839" fill="rgb(242,7,242)"/><g opacity="0.41"><path d=" M -519.48 -2511.171 C -515.566 -2513.864 -516.191 -2517.999 -517.653 -2519.586 C -519.7 -2521.808 -521.441 -2524.23 -515.874 -2524.539 C -505.992 -2521.69 -510.998 -2508.093 -519.48 -2511.171 Z " fill="rgb(152,0,0)"/></g></g><g opacity="0.71"><path d=" M -624.715 970.755 C -619.247 972.011 -613.982 979.066 -614.865 984.394 C -611.368 976.343 -615.622 969.692 -624.715 970.755 Z " fill="rgb(64,0,34)" fill-opacity="0.984313725490196"/></g><g opacity="0.71"><path d=" M -607.68 959.648 C -601.269 960.155 -596.001 967.213 -597.83 973.288 C -594.333 965.237 -598.586 958.585 -607.68 959.648 Z " fill="rgb(64,0,34)" fill-opacity="0.984313725490196"/></g><g opacity="0.71"><path d=" M -594.852 952.772 C -587.636 953.454 -582.368 960.512 -585.002 966.412 C -581.505 958.361 -585.758 951.709 -594.852 952.772 Z " fill="rgb(64,0,34)" fill-opacity="0.984313725490196"/></g><g clip-path="url(#_clipPath_jvyt727TMyvoHTw2jpktvQhc7sOjh6Kz)"><text transform="matrix(0.316,0.035,-0.03,0.273,-362.385,-2623.558)" style="font-family:'PT Sans Caption';font-weight:400;font-size:71px;font-style:normal;fill:#ff0000;stroke:none;">Multiple Hunters</text></g><defs><clipPath id="_clipPath_jvyt727TMyvoHTw2jpktvQhc7sOjh6Kz"><rect x="0" y="0" width="695.526" height="178.205" transform="matrix(0.316,0.035,-0.03,0.273,-376.557,-2645.087)"/></clipPath></defs><g clip-path="url(#_clipPath_IQqvVWNyFTMhVGlFym1W9y06nkEGVffG)"><text transform="matrix(0.316,0.035,-0.03,0.273,-325.095,-1533.229)" style="font-family:'PT Sans Caption';font-weight:400;font-size:72px;font-style:normal;fill:#ff0000;stroke:none;">Plot Escape Paths</text></g><defs><clipPath id="_clipPath_IQqvVWNyFTMhVGlFym1W9y06nkEGVffG"><rect x="0" y="0" width="631.317" height="93.363" transform="matrix(0.316,0.035,-0.03,0.273,-323.405,-1553.308)"/></clipPath></defs><g clip-path="url(#_clipPath_nE1165NPqzkUTibFxVUdlvFU3Y0D0PNz)"><text transform="matrix(0.462,-0.04,0.034,0.399,-301.307,-882.285)" style="font-family:'PT Sans Caption';font-weight:400;font-size:48px;font-style:normal;fill:#ff0000;stroke:none;">Plot Escape Vectors</text></g><defs><clipPath id="_clipPath_nE1165NPqzkUTibFxVUdlvFU3Y0D0PNz"><rect x="0" y="0" width="462" height="62.112" transform="matrix(0.462,-0.04,0.034,0.399,-303,-901.77)"/></clipPath></defs><g clip-path="url(#_clipPath_515CpVU49Zo1550j9JdMCecPgBpEF0wG)"><text transform="matrix(0.684,0.129,-0.112,0.591,-337.799,-154.636)" style="font-family:'PT Sans Caption';font-weight:400;font-size:48px;font-style:normal;fill:#ff0000;stroke:none;">Add Vectors</text></g><defs><clipPath id="_clipPath_515CpVU49Zo1550j9JdMCecPgBpEF0wG"><rect x="0" y="0" width="280" height="62.112" transform="matrix(0.684,0.129,-0.112,0.591,-332.467,-183.536)"/></clipPath></defs><g clip-path="url(#_clipPath_J4qnMiF06KuJ1pC1ppnjGZapM4zLeYOo)"><text transform="matrix(0.741,-0.225,0.195,0.64,-311.406,381.963)" style="font-family:'PT Sans Caption';font-weight:400;font-size:48px;font-style:normal;fill:#ff0000;stroke:none;">Plot Escape</text></g><defs><clipPath id="_clipPath_J4qnMiF06KuJ1pC1ppnjGZapM4zLeYOo"><rect x="0" y="0" width="276" height="62.112" transform="matrix(0.741,-0.225,0.195,0.64,-321.06,350.723)"/></clipPath></defs><g clip-path="url(#_clipPath_i8FJm7OOMONYy1oRPlK1IPMmqIfStmg9)"><text transform="matrix(0.599,0.322,-0.278,0.518,-368.898,726.189)" style="font-family:'PT Sans Caption';font-weight:400;font-size:48px;font-style:normal;fill:#ff0000;stroke:none;">GOOOOOOO!!!!!!</text></g><defs><clipPath id="_clipPath_i8FJm7OOMONYy1oRPlK1IPMmqIfStmg9"><rect x="0" y="0" width="381" height="62.112" transform="matrix(0.599,0.322,-0.278,0.518,-355.474,700.8)"/></clipPath></defs><g clip-path="url(#_clipPath_y5iWTrlUnk65Br4fxVxeeDJ84I4oi2gG)"><text transform="matrix(0.312,-0.065,0.056,0.269,-387.776,-2237.598)" style="font-family:'PT Sans Caption';font-weight:400;font-size:83px;font-style:normal;fill:#ff0000;stroke:none;">View Danger Bubbles</text></g><defs><clipPath id="_clipPath_y5iWTrlUnk65Br4fxVxeeDJ84I4oi2gG"><rect x="0" y="0" width="883.605" height="108.678" transform="matrix(0.312,-0.065,0.056,0.269,-394.576,-2259.902)"/></clipPath></defs></g></g></svg>